<svg width="142" height="56" viewBox="0 0 142 56" fill="none" xmlns="http://www.w3.org/2000/svg">
<g id="Logo1280">
<rect x="0.5" y="0.5" width="141" height="55" rx="10.5" fill="url(#paint0_linear_316_762)"/>
<path id="Vector" d="M65.4375 37.1743C65.498 37.3988 65.5719 37.6578 65.6391 37.9255C65.6929 38.1499 65.9551 39.1342 66.1837 39.9718H64.6441C64.7853 39.4969 64.9601 38.8234 65.2223 37.9427C65.303 37.6664 65.3769 37.4074 65.4375 37.1743ZM78.5673 36.19H79.5892C80.1808 36.1986 81.0615 36.1986 81.2498 36.2677C81.4649 36.4317 81.5859 36.6994 81.5792 36.9757C81.559 37.1311 81.5052 37.3988 81.2162 37.5542C81.0548 37.6319 80.7993 37.6751 79.522 37.6751C79.1119 37.6751 78.8026 37.6578 78.5606 37.6319C78.5673 37.4074 78.5673 37.1397 78.5673 36.8634V36.19ZM77.8412 35.2402C77.848 35.2575 77.8345 38.4694 77.8345 38.4694C77.8345 38.4694 78.2648 38.6162 79.522 38.6162C80.9405 38.6162 81.2094 38.5903 81.5052 38.409C82.5204 37.8564 82.5809 36.19 81.6061 35.4474C81.3977 35.3007 81.1153 35.2575 79.5892 35.2488L77.8412 35.2402ZM65.4711 34.3164C65.4576 34.3423 64.9937 35.9828 64.5366 37.6146C64.066 39.2638 63.5954 40.9043 63.5954 40.9215C63.6021 40.9215 65.2694 40.9043 66.3316 40.9043H67.2056C67.1787 40.8524 65.4778 34.4027 65.4711 34.3164ZM43.2135 32.4341H46.2065C46.2065 32.4341 47.8476 38.3917 47.8678 38.3917L49.5082 32.4341H52.8656L53.6589 35.4302C54.0892 37.0361 54.4724 38.3226 54.5194 38.3226C54.5732 38.2622 56.1329 32.4686 56.1329 32.4686H59.1314L55.5144 46.0589H53.4169C53.4169 46.0589 51.1889 37.7873 51.2023 37.7528L48.8675 45.9553H46.7968L43.2135 32.4341ZM92.4434 32.3823H99.1932L99.1865 35.931C99.1865 35.931 96.1948 35.9223 94.6754 35.9223H93.8149C93.5594 35.9828 93.3914 36.6994 93.4586 37.0275C93.4989 37.1743 93.7679 37.6837 94.0704 38.1758C94.3662 38.6507 94.8637 39.4364 95.146 39.9027C95.9125 41.1201 96.0133 41.3446 96.0805 42.0612C96.1948 43.2096 95.7713 44.4443 94.9914 45.2473C94.225 46.0589 94.2654 46.0589 88.4769 46.0589H88.2214C84.6986 46.0589 82.8364 46.0243 82.5742 45.9466C82.0969 45.7998 81.3237 44.9969 79.3001 42.5016C78.5673 41.6036 77.895 40.8265 77.8547 40.8265L77.8412 46.0675L74.5605 46.0502L74.5336 32.5291H81.8548C84.0532 32.6413 85.5659 35.4561 85.2566 37.2693C85.1894 37.6664 85.0213 38.2622 84.8734 38.5903C84.5776 39.2292 83.8448 40.0495 83.233 40.4035C83.0112 40.5416 82.8229 40.6884 82.8229 40.7488C82.8229 40.9474 83.5557 41.8799 83.8448 42.0267C84.0599 42.1562 84.7524 42.1735 87.7979 42.1735H88.766C91.8115 42.1735 91.6568 42.1562 91.8854 41.5173C92.0468 41.0597 91.9325 40.792 90.7627 39.1083C89.2971 37.2347 89.4517 36.3454 89.4383 35.6719C89.4248 34.8862 89.9022 32.3823 92.4434 32.3823ZM62.8895 32.3218H67.8779L71.5755 45.9294L68.5703 45.9553L68.0661 43.9003L62.6945 43.8571L62.2239 45.9035L59.2389 45.8603L62.8895 32.3218ZM42.1896 31.4843L42.5197 32.7363L46.103 46.2488L46.2717 46.905H49.3791L49.5525 46.2747L51.1687 40.5675C51.3112 41.0942 51.4645 41.6641 51.6084 42.2253C52.1664 44.2802 52.7244 46.3611 52.7244 46.3611L52.8992 46.9914H56.0254L56.2002 46.3524L59.8305 32.7881L60.16 31.5361H55.6085L55.4337 32.1664C55.1716 33.1939 54.8085 34.5322 54.4925 35.6633C54.4455 35.4733 54.3984 35.3093 54.3581 35.1107L53.558 32.1146L53.3833 31.4843H48.9865L48.8123 32.1146L47.8584 35.6028C47.541 34.4718 47.176 33.1248 46.8956 32.1146L46.7235 31.4843H42.1896ZM92.4434 31.4412C90.9711 31.4412 90.1039 32.1751 89.6467 32.8054C88.8803 33.8156 88.692 35.0848 88.7122 35.7065C88.7189 35.7496 88.7189 35.8014 88.7122 35.8446C88.7122 36.8289 88.8198 37.9427 90.2383 39.7559C90.514 40.1531 90.9778 40.8352 91.1594 41.1805C90.7761 41.241 89.7946 41.241 88.766 41.241H87.7979C85.9693 41.241 84.4364 41.241 84.107 41.1546C84.0801 41.1201 84.0062 41.051 83.9389 40.982C84.5709 40.4812 85.2096 39.7041 85.5121 39.0565C85.6802 38.6594 85.8886 37.96 85.9693 37.4592C86.1709 36.3281 85.8483 34.9639 85.1491 33.7983C84.3356 32.46 83.1389 31.657 81.875 31.5966H73.794V32.5291L73.8277 46.0502V46.9741H74.5537L77.8345 46.9914L78.5606 47L78.5673 46.0675L78.5875 42.9247C78.6614 43.011 78.7152 43.0887 78.7892 43.1923C81.0077 45.9121 81.7473 46.6633 82.4128 46.8705C82.5876 46.9137 82.8902 46.9914 88.2214 46.9914H88.4769C91.361 46.9914 92.7997 46.9914 93.6737 46.8964C94.6553 46.7669 94.9713 46.4819 95.4419 45.9812L95.4688 45.9725C96.4503 44.9451 96.9545 43.3995 96.8066 41.9404C96.7125 40.9906 96.5175 40.5934 95.7108 39.3069L95.4822 38.927C95.1998 38.4953 94.8771 37.9513 94.6418 37.5887C94.4536 37.2865 94.3191 37.0361 94.2317 36.8634H94.6754C96.1814 36.8634 99.1462 36.8807 99.1865 36.8807H99.9193V35.931L99.926 32.3823V31.4412H92.4434ZM62.3718 31.3807L62.2037 32.0197L58.5599 45.5581L58.2305 46.7928L59.2389 46.8014L62.2239 46.8446L62.7617 46.8532L62.9298 46.1711L63.2458 44.7983L67.5283 44.8414L67.8644 46.2316L68.0325 46.905H68.5703L71.5755 46.8791H72.5974L72.2679 45.6358L68.5771 32.0197L68.4023 31.3807H62.3718ZM75.1991 14.7884C75.4613 15.7977 75.7706 16.9262 75.979 17.7482L74.3722 17.7603C74.5941 16.9262 74.9101 15.7977 75.1991 14.7884ZM88.1811 13.7195H89.0954C90.3728 13.7195 90.6417 13.7428 90.7963 13.8257C91.0787 14.0018 91.1123 14.0726 91.1325 14.4128C91.1661 14.7538 91.1257 14.8825 90.8635 15.1294C90.8568 15.1398 90.8501 15.1398 90.8501 15.1527C90.682 15.1881 90.0501 15.1881 89.25 15.1881H88.1811V13.7195ZM87.455 12.7809V16.1267H89.25C91.0047 16.1267 91.0585 16.1267 91.314 15.8806C91.7644 15.4584 91.9258 15.012 91.872 14.3299C91.8182 13.6262 91.6098 13.2627 91.0787 12.9691C90.7829 12.8034 90.5005 12.7809 89.0954 12.7809H87.455ZM75.2193 11.9693C75.1991 11.9693 73.3167 18.6988 73.3571 18.6988L76.9807 18.6893C77.0076 18.6893 75.226 11.9728 75.2193 11.9693ZM84.1339 10.0504H87.9525C90.319 10.0504 91.9796 10.094 92.2888 10.1643C93.0216 10.3277 93.6805 10.8292 94.178 11.5998C94.6956 12.4036 94.8233 12.7913 94.8839 13.8956C94.978 15.4584 94.3998 16.7967 93.2569 17.6662C92.9342 17.9252 92.5913 18.1713 92.4972 18.2196C92.3762 18.3008 92.3897 18.3707 92.6317 18.7238C92.7729 18.9466 93.0418 19.2773 93.2031 19.4396L93.5124 19.7504L99.1865 19.8454L99.247 23.5668H95.7578C93.0821 23.5668 92.2014 23.5409 91.9661 23.4373C91.5695 23.2732 90.6753 22.2803 88.8265 20.0181L87.5088 18.4052L87.5155 23.5668H84.1339V10.0504ZM72.5772 10.0504H77.6261L81.3103 23.6963L78.3119 23.679L77.8278 21.6413L72.4831 21.5982L72.0058 23.5668H68.9468L72.5772 10.0504ZM69.1216 9.94113V13.2972H63.8845V23.5668H60.765V13.2972L54.6472 13.3085C53.9009 13.3085 53.8202 14.0726 53.8202 14.3541C53.8202 14.7063 53.9883 15.0698 54.9766 16.6793C55.622 17.7257 56.2136 18.7592 56.2876 18.9924C56.7178 20.2512 56.1665 22.2026 55.1716 22.9969C54.4522 23.5581 54.5732 23.5668 49.2876 23.5668H42.7321V19.8023H51.6891L51.9513 19.5691C52.1261 19.4051 52.2336 19.178 52.2672 18.8879C52.321 18.4536 52.3009 18.3949 51.1889 16.7967C49.8826 14.9067 49.7448 14.5527 49.8093 13.3551C49.892 11.9736 50.8427 9.97307 52.5227 9.97307L69.1216 9.94113ZM83.3944 9.11138V24.5165H88.2551L88.2483 23.5668V20.6139L88.3223 20.7002C90.6148 23.4891 91.2804 24.128 91.7241 24.3266C92.0602 24.4647 92.6384 24.5165 95.7578 24.5165H100L99.9866 23.5495L99.9193 19.8368L99.9059 18.9224L99.2 18.9121L93.7678 18.8171L93.6536 18.6988C93.6199 18.6643 93.5729 18.6176 93.5258 18.5589C93.5729 18.5356 93.6132 18.5002 93.6401 18.476C94.9981 17.4313 95.7309 15.7278 95.6032 13.8257C95.5293 12.5331 95.3545 11.952 94.736 11.0007C94.1309 10.0646 93.3107 9.43862 92.4098 9.2383C91.9258 9.12606 89.4114 9.11138 87.9525 9.11138H83.3944ZM72.0595 9.11138L71.8982 9.74427L68.2544 23.2732L67.9249 24.5165H72.5503L72.7049 23.8517L73.0142 22.5652L77.2832 22.5825L77.6059 23.9553L77.774 24.6115H78.3051L81.3103 24.6547H82.3389L82.0027 23.4114L78.3186 9.74254L78.1505 9.11138H72.0595ZM69.1216 9L52.5227 9.03281C51.5681 9.03281 50.6665 9.56295 50.0198 10.5262C49.4893 11.3071 49.133 12.3337 49.0873 13.2852C48.9959 14.8713 49.2796 15.4463 50.6396 17.4192C51.047 17.9951 51.4181 18.5356 51.5412 18.7696V18.7817C51.5412 18.7938 51.5412 18.7938 51.5344 18.7938L51.4518 18.8637H42V24.5165H49.2876C51.8975 24.5165 53.1883 24.5165 53.9413 24.4475C54.8152 24.3611 55.0842 24.1625 55.5077 23.8344L55.5615 23.8085C56.8456 22.7638 57.5246 20.2858 56.9531 18.6176C56.7851 18.1013 55.6758 16.3037 55.5615 16.0921C55.2052 15.5292 54.6404 14.601 54.5463 14.3299C54.5463 14.3074 54.5463 14.2841 54.553 14.2591C54.5732 14.2591 54.6001 14.2487 54.6472 14.2487L60.0389 14.2375V24.5165H64.6173V14.2375H69.8544V9H69.1216Z" fill="#ECE9E9"/>
<rect x="0.5" y="0.5" width="141" height="55" rx="10.5" stroke="#2A2A2D"/>
</g>
<defs>
<linearGradient id="paint0_linear_316_762" x1="71" y1="0" x2="71" y2="56" gradientUnits="userSpaceOnUse">
<stop stop-color="#9937EB"/>
<stop offset="1" stop-color="#6925A2"/>
</linearGradient>
</defs>
</svg>
