<svg width="164" height="80" viewBox="0 0 164 80" fill="none" xmlns="http://www.w3.org/2000/svg">
<g id="Logo">
<rect x="0.5" y="0.5" width="163" height="79" rx="10.5" fill="url(#paint0_linear_43_1566)"/>
<path id="Vector" d="M73.7316 52.2957C73.8161 52.6088 73.9194 52.9701 74.0133 53.3434C74.0884 53.6565 74.4546 55.0293 74.7738 56.1975H72.6237C72.8209 55.5351 73.065 54.5958 73.4312 53.3675C73.5438 52.9821 73.6471 52.6208 73.7316 52.2957ZM92.0682 50.9229H93.4953C94.3215 50.9349 95.5514 50.9349 95.8143 51.0312C96.1148 51.26 96.2838 51.6334 96.2744 52.0187C96.2462 52.2355 96.1711 52.6088 95.7674 52.8256C95.5421 52.9339 95.1853 52.9942 93.4014 52.9942C92.8287 52.9942 92.3968 52.9701 92.0588 52.9339C92.0682 52.6208 92.0682 52.2475 92.0682 51.8622V50.9229ZM91.0542 49.5982C91.0635 49.6223 91.0448 54.1021 91.0448 54.1021C91.0448 54.1021 91.6457 54.3068 93.4014 54.3068C95.3824 54.3068 95.758 54.2707 96.1711 54.0178C97.5888 53.247 97.6733 50.9229 96.3119 49.8872C96.0209 49.6825 95.6265 49.6223 93.4953 49.6102L91.0542 49.5982ZM73.7786 48.3097C73.7598 48.3458 73.1119 50.6338 72.4735 52.9099C71.8163 55.21 71.1591 57.498 71.1591 57.5221C71.1684 57.5221 73.4969 57.498 74.9803 57.498H76.2009C76.1633 57.4258 73.788 48.4301 73.7786 48.3097ZM42.6947 45.6844H46.8746C46.8746 45.6844 49.1665 53.9937 49.1946 53.9937L51.4855 45.6844H56.1744L57.2822 49.8631C57.8831 52.103 58.4183 53.8973 58.484 53.8973C58.5591 53.813 60.7374 45.7326 60.7374 45.7326H64.9248L59.8736 64.6874H56.9442C56.9442 64.6874 53.8328 53.1507 53.8515 53.1025L50.5908 64.5429H47.699L42.6947 45.6844ZM111.447 45.6121H120.873L120.864 50.5616C120.864 50.5616 116.686 50.5495 114.564 50.5495H113.362C113.005 50.6338 112.771 51.6334 112.865 52.091C112.921 52.2957 113.296 53.0062 113.719 53.6926C114.132 54.355 114.827 55.4508 115.221 56.1011C116.292 57.7991 116.432 58.1122 116.526 59.1117C116.686 60.7134 116.094 62.4354 115.005 63.5554C113.935 64.6874 113.991 64.6874 105.907 64.6874H105.551C100.631 64.6874 98.0301 64.6392 97.6639 64.5308C96.9973 64.3261 95.9176 63.2062 93.0915 59.7259C92.0682 58.4735 91.1293 57.3896 91.0729 57.3896L91.0542 64.6994L86.4724 64.6753L86.4348 45.8169H96.6593C99.7295 45.9734 101.842 49.8993 101.41 52.4282C101.316 52.9821 101.082 53.813 100.875 54.2707C100.462 55.1618 99.4385 56.3058 98.5841 56.7996C98.2742 56.9923 98.0113 57.197 98.0113 57.2813C98.0113 57.5582 99.0347 58.8588 99.4384 59.0636C99.7389 59.2442 100.706 59.2683 104.959 59.2683H106.311C110.564 59.2683 110.348 59.2442 110.668 58.353C110.893 57.7148 110.733 57.3415 109.1 54.9932C107.053 52.38 107.269 51.1396 107.25 50.2003C107.231 49.1045 107.898 45.6121 111.447 45.6121ZM70.1732 45.5278H77.1398L82.3037 64.5067L78.1068 64.5429L77.4027 61.6768L69.9009 61.6166L69.2437 64.4706L65.075 64.4104L70.1732 45.5278ZM41.2648 44.3597L41.7258 46.1059L46.7301 64.9523L46.9657 65.8675H51.3053L51.5475 64.9884L53.8046 57.0284C54.0036 57.763 54.2177 58.5578 54.4186 59.3405C55.1979 62.2066 55.9772 65.1089 55.9772 65.1089L56.2213 65.988H60.5871L60.8313 65.0968L65.9013 46.1781L66.3613 44.432H60.005L59.7609 45.3111C59.3948 46.7441 58.8877 48.6107 58.4465 50.1883C58.3807 49.9233 58.315 49.6945 58.2587 49.4176L57.1414 45.2388L56.8973 44.3597H50.757L50.5138 45.2388L49.1815 50.104C48.7383 48.5264 48.2285 46.6478 47.837 45.2388L47.5966 44.3597H41.2648ZM111.447 44.2995C109.391 44.2995 108.18 45.3231 107.541 46.2022C106.471 47.6112 106.208 49.3814 106.236 50.2485C106.245 50.3087 106.245 50.381 106.236 50.4412C106.236 51.814 106.386 53.3675 108.367 55.8964C108.752 56.4503 109.4 57.4017 109.654 57.8834C109.118 57.9677 107.748 57.9677 106.311 57.9677H104.959C102.405 57.9677 100.265 57.9677 99.8046 57.8473C99.7671 57.7991 99.6638 57.7028 99.5699 57.6064C100.452 56.908 101.344 55.8241 101.767 54.9209C102.002 54.367 102.293 53.3916 102.405 52.6931C102.687 51.1155 102.236 49.2128 101.26 47.5871C100.124 45.7205 98.4526 44.6006 96.6875 44.5163H85.402V45.8169L85.449 64.6753V65.9639H86.463L91.0448 65.988L92.0588 66L92.0682 64.6994L92.0963 60.316C92.1996 60.4364 92.2747 60.5448 92.378 60.6893C95.4763 64.4827 96.5091 65.5303 97.4386 65.8194C97.6827 65.8796 98.1052 65.988 105.551 65.988H105.907C109.935 65.988 111.944 65.988 113.165 65.8555C114.536 65.6749 114.977 65.2775 115.634 64.579L115.672 64.5669C117.043 63.1339 117.747 60.9783 117.54 58.9431C117.409 57.6185 117.137 57.0645 116.01 55.2702L115.691 54.7403C115.296 54.1382 114.846 53.3795 114.517 52.8737C114.254 52.4522 114.066 52.103 113.944 51.8622H114.564C116.667 51.8622 120.808 51.8863 120.864 51.8863H121.887V50.5616L121.897 45.6121V44.2995H111.447ZM69.4503 44.2152L69.2155 45.1064L64.1268 63.9889L63.6667 65.711L65.075 65.723L69.2437 65.7832L69.9948 65.7953L70.2296 64.8439L70.6708 62.9292L76.6516 62.9894L77.121 64.9282L77.3557 65.8675H78.1068L82.3037 65.8314H83.7308L83.2707 64.0973L78.1162 45.1064L77.8721 44.2152H69.4503ZM87.3643 21.0733C87.7305 22.481 88.1624 24.055 88.4534 25.2014L86.2095 25.2183C86.5193 24.055 86.9606 22.481 87.3643 21.0733ZM105.494 19.5824H106.771C108.555 19.5824 108.931 19.6149 109.147 19.7305C109.541 19.9762 109.588 20.0749 109.616 20.5494C109.663 21.0251 109.607 21.2045 109.24 21.5489C109.231 21.5634 109.222 21.5634 109.222 21.5814C108.987 21.6308 108.104 21.6308 106.987 21.6308H105.494V19.5824ZM104.48 18.2734V22.9398H106.987C109.438 22.9398 109.513 22.9398 109.87 22.5966C110.499 22.0077 110.724 21.3852 110.649 20.4338C110.574 19.4523 110.283 18.9454 109.541 18.5359C109.128 18.3047 108.733 18.2734 106.771 18.2734H104.48ZM87.3925 17.1414C87.3643 17.1414 84.7354 26.5273 84.7917 26.5273L89.8524 26.514C89.8899 26.514 87.4019 17.1462 87.3925 17.1414ZM99.8422 14.465H105.175C108.48 14.465 110.799 14.5258 111.231 14.6239C112.254 14.8518 113.174 15.5512 113.869 16.626C114.592 17.7471 114.771 18.2878 114.855 19.8281C114.986 22.0077 114.179 23.8743 112.583 25.087C112.132 25.4483 111.653 25.7915 111.522 25.8589C111.353 25.9721 111.372 26.0697 111.71 26.5622C111.907 26.8729 112.282 27.3341 112.508 27.5605L112.94 27.994L120.864 28.1265L120.948 33.3168H116.076C112.339 33.3168 111.109 33.2807 110.78 33.1362C110.226 32.9074 108.978 31.5225 106.396 28.3674L104.555 26.1178L104.565 33.3168H99.8422V14.465ZM83.7026 14.465H90.7537L95.8988 33.4974L91.7114 33.4734L91.0354 30.6313L83.5712 30.5711L82.9046 33.3168H78.6326L83.7026 14.465ZM78.8767 14.3126V18.9935H71.5628V33.3168H67.2063V18.9935L58.6624 19.0092C57.6202 19.0092 57.5076 20.0749 57.5076 20.4675C57.5076 20.9589 57.7423 21.4658 59.1225 23.7106C60.0238 25.1701 60.85 26.6116 60.9533 26.9367C61.5542 28.6925 60.7843 31.4141 59.3948 32.522C58.3901 33.3048 58.5591 33.3168 51.1776 33.3168H42.0225V28.0663H54.5313L54.8975 27.7412C55.1416 27.5124 55.2918 27.1956 55.3387 26.791C55.4139 26.1853 55.3857 26.1034 53.8328 23.8743C52.0085 21.2382 51.816 20.7445 51.9062 19.0742C52.0216 17.1474 53.3492 14.3572 55.6955 14.3572L78.8767 14.3126ZM98.8094 13.1553V34.6415H105.598L105.588 33.3168V29.1983L105.691 29.3187C108.893 33.2084 109.823 34.0996 110.442 34.3765C110.912 34.5692 111.719 34.6415 116.076 34.6415H122L121.981 33.2927L121.887 28.1145L121.869 26.8392L120.883 26.8247L113.296 26.6923L113.137 26.5273C113.09 26.4791 113.024 26.4141 112.958 26.3322C113.024 26.2997 113.081 26.2503 113.118 26.2166C115.015 24.7594 116.038 22.3835 115.86 19.7305C115.756 17.9278 115.512 17.1173 114.648 15.7905C113.803 14.4848 112.658 13.6118 111.4 13.3324C110.724 13.1758 107.212 13.1553 105.175 13.1553H98.8094ZM82.9797 13.1553L82.7544 14.0381L77.6656 32.9074L77.2055 34.6415H83.6651L83.881 33.7142L84.3129 31.9199L90.2749 31.944L90.7255 33.8587L90.9603 34.7739H91.702L95.8988 34.8342H97.3353L96.8659 33.1L91.7208 14.0357L91.486 13.1553H82.9797ZM78.8767 13L55.6955 13.0458C54.3623 13.0458 53.1032 13.7852 52.2 15.1286C51.4592 16.2177 50.9616 17.6496 50.8978 18.9767C50.7701 21.1889 51.1663 21.9909 53.0657 24.7426C53.6347 25.5458 54.1529 26.2997 54.3247 26.626V26.6429C54.3247 26.6597 54.3247 26.6597 54.3154 26.6597L54.1999 26.7573H41V34.6415H51.1776C54.8224 34.6415 56.625 34.6415 57.6766 34.5451C58.8971 34.4247 59.2727 34.1477 59.8642 33.6901L59.9393 33.654C61.7326 32.1969 62.6809 28.7407 61.8828 26.4141C61.6481 25.6939 60.0989 23.1867 59.9393 22.8917C59.4417 22.1065 58.653 20.8119 58.5216 20.4338C58.5216 20.4025 58.5216 20.37 58.531 20.3351C58.5591 20.3351 58.5967 20.3206 58.6624 20.3206L66.1923 20.3049V34.6415H72.5862V20.3049H79.9001V13H78.8767Z" fill="#ECE9E9"/>
<rect x="0.5" y="0.5" width="163" height="79" rx="10.5" stroke="#2A2A2D"/>
</g>
<defs>
<linearGradient id="paint0_linear_43_1566" x1="82" y1="0" x2="82" y2="80" gradientUnits="userSpaceOnUse">
<stop stop-color="#9937EB"/>
<stop offset="1" stop-color="#6925A2"/>
</linearGradient>
</defs>
</svg>
